<?xml version="1.0" encoding="UTF-8" standalone="no"?>
<!DOCTYPE svg PUBLIC "-//W3C//DTD SVG 1.1//EN" "http://www.w3.org/Graphics/SVG/1.1/DTD/svg11.dtd">
<svg width="100%" height="100%" viewBox="0 0 97 89" version="1.1" xmlns="http://www.w3.org/2000/svg" xmlns:xlink="http://www.w3.org/1999/xlink" xml:space="preserve" style="fill-rule:evenodd;clip-rule:evenodd;stroke-linejoin:round;stroke-miterlimit:1.41421;">
    <g id="Artboard1" transform="matrix(1,0,0,1,-2.43895,-5.34264)">
        <rect x="2.439" y="5.343" width="96.222" height="88.162" style="fill:none;"/>
        <path d="M88.482,19.284C83.937,14.483 77.794,11.739 71.185,11.558C64.579,11.37 58.292,13.782 53.497,18.321L49.533,22.026L45.217,17.514C35.677,9.145 21.865,9.596 12.376,18.586C2.703,27.75 2.603,42.82 12.146,52.895L32.278,74.245L44.136,86.854C44.137,86.856 44.137,86.856 44.138,86.858C45.157,87.934 46.425,88.471 47.729,88.471C48.978,88.471 50.255,87.957 51.387,86.977C51.432,86.946 51.483,86.928 51.523,86.891L54.084,84.481L54.086,84.483L54.923,83.692L65.024,74.212L68.053,71.345L68.727,70.712L68.724,70.708L70.499,69.026L74.63,65.118L86.843,53.556C91.683,48.975 94.548,42.971 94.908,36.65C95.274,30.216 92.993,24.05 88.482,19.284ZM13.75,20.038C22.475,11.776 35.152,11.348 43.833,18.959L65.286,41.384C66.092,42.234 66.516,43.346 66.485,44.516C66.454,45.687 65.969,46.775 65.12,47.578C64.269,48.386 63.161,48.804 61.986,48.779C60.817,48.748 59.729,48.26 58.924,47.41L49.945,37.935C49.944,37.933 49.944,37.931 49.942,37.93C49.94,37.929 49.939,37.928 49.938,37.927L45.358,33.093C45.061,32.779 44.587,32.698 44.196,32.88C43.992,32.977 39.122,35.161 32.519,28.192C32.14,27.79 31.507,27.774 31.105,28.153C30.704,28.532 30.687,29.165 31.066,29.567C37.317,36.169 42.505,35.491 44.356,34.944L47.8,38.579L26.058,59.138C24.981,60.158 24.412,61.509 24.337,62.884L21.322,59.679C21.293,59.648 21.253,59.634 21.219,59.607L13.597,51.525C4.825,42.261 4.893,28.432 13.75,20.038ZM29.879,68.776C29.887,68.776 29.896,68.778 29.903,68.778C30.139,68.778 30.374,68.743 30.609,68.714C30.552,68.954 30.531,69.2 30.507,69.444L29.879,68.776ZM32.366,65.802C30.931,67.159 28.654,67.099 27.295,65.661C25.935,64.223 25.997,61.948 27.433,60.589L49.178,40.03L54.293,45.427C54.058,45.436 53.822,45.516 53.639,45.692L32.366,65.802ZM36.2,75.499C36.463,75.491 36.723,75.472 36.983,75.427C36.929,75.691 36.9,75.956 36.881,76.224L36.2,75.499ZM45.591,85.483C45.591,85.483 45.589,85.483 45.589,85.481L43.927,83.713C43.917,83.703 43.915,83.69 43.906,83.68C42.561,82.213 42.618,79.965 44.033,78.666C44.728,78.029 45.622,77.701 46.551,77.748C47.481,77.793 48.347,78.205 48.989,78.906L52.253,82.476L52.732,83.001L50.25,85.329C48.711,86.788 46.882,86.851 45.591,85.483ZM62.789,62.86C62.837,62.026 63.199,61.258 63.812,60.696C64.381,60.173 65.121,59.885 65.893,59.885C66.754,59.885 67.581,60.246 68.154,60.871L71.842,65L67.975,68.66L67.372,69.228L63.58,65.074C63.569,65.06 63.557,65.053 63.545,65.039C63.015,64.446 62.743,63.675 62.789,62.86ZM62.096,66.423L65.916,70.603L60.72,75.468L56.853,71.253C56.212,70.558 55.881,69.649 55.921,68.702C55.961,67.755 56.367,66.882 57.066,66.241C57.733,65.63 58.6,65.292 59.507,65.292C60.5,65.292 61.411,65.688 62.077,66.399C62.085,66.407 62.089,66.415 62.096,66.423ZM55.509,72.765L59.261,76.839L54.189,81.632L50.394,77.48C49.753,76.783 49.422,75.875 49.462,74.929C49.502,73.982 49.908,73.107 50.607,72.466C51.246,71.878 52.03,71.57 52.874,71.57C53.851,71.569 54.811,72.003 55.509,72.765ZM92.91,36.534C92.578,42.346 89.934,47.874 85.466,52.102L73.295,63.624L69.637,59.528C68.678,58.483 67.314,57.882 65.894,57.882C64.619,57.882 63.399,58.359 62.46,59.222C61.461,60.138 60.868,61.39 60.793,62.745C60.778,62.985 60.803,63.22 60.822,63.454C60.394,63.35 59.953,63.29 59.507,63.29C58.097,63.29 56.749,63.815 55.713,64.767C54.621,65.769 53.985,67.136 53.922,68.617C53.906,68.978 53.928,69.336 53.981,69.685C53.618,69.609 53.248,69.568 52.875,69.568C51.541,69.568 50.256,70.074 49.256,70.992C48.164,71.994 47.528,73.361 47.465,74.842C47.449,75.196 47.473,75.541 47.522,75.881C47.235,75.82 46.947,75.768 46.65,75.752C45.182,75.674 43.774,76.191 42.682,77.193C41.885,77.923 41.37,78.849 41.119,79.834C40.559,79.654 40.099,79.406 39.806,79.098C38.45,77.662 38.539,75.278 40.001,73.887L61.27,53.76C61.671,53.381 61.688,52.748 61.309,52.348C60.929,51.948 60.296,51.93 59.895,52.309L38.626,72.431C38.625,72.433 38.624,72.433 38.624,72.433C38.623,72.435 38.622,72.437 38.621,72.437L38.519,72.535C37.082,73.894 34.807,73.83 33.447,72.394C32.087,70.955 32.151,68.753 33.595,67.384C33.607,67.372 33.611,67.359 33.621,67.347C33.659,67.312 33.702,67.288 33.739,67.253L55.011,47.145C55.196,46.97 55.289,46.74 55.311,46.504L57.471,48.782C58.643,50.02 60.227,50.729 61.931,50.774C63.644,50.835 65.256,50.202 66.494,49.028C67.731,47.855 68.437,46.271 68.483,44.567C68.529,42.864 67.908,41.243 66.733,40.004L50.916,23.472L54.868,19.779C59.28,15.6 65.055,13.391 71.132,13.558C77.206,13.725 82.854,16.246 87.031,20.66C91.157,25.021 93.246,30.657 92.91,36.534Z" style="fill-opacity:0.788235;fill-rule:nonzero;"/>
    </g>
</svg>
